<svg height="512pt" viewBox="0 -69 512 512" width="512pt" xmlns="http://www.w3.org/2000/svg"><path d="m263.746094 207.332031c-10.457032 4.417969-22.257813 4.417969-32.71875 0l-151.84375-64.109375v153.894532c.847656.488281 1.742187.90625 2.695312 1.226562 107.394532 35.984375 223.625 35.984375 331.019532 0 .949218-.320312 1.84375-.738281 2.691406-1.226562v-153.894532zm0 0" fill="#554e56"/><path d="m109.1875 155.890625-30.003906-12.667969v153.894532c.847656.488281 1.742187.90625 2.695312 1.226562 9.042969 3.027344 18.148438 5.78125 27.308594 8.300781zm0 0" fill="#433f43"/><path d="m412.898438 296.34375c-107.394532 35.984375-223.625 35.984375-331.019532 0-.953125-.320312-1.847656-.738281-2.695312-1.226562v30.792968c0 6.238282 3.960937 11.886719 9.875 13.867188 102.734375 34.425781 213.925781 34.425781 316.65625 0 5.914062-1.980469 9.875-7.628906 9.875-13.867188v-30.792968c-.847656.488281-1.742188.90625-2.691406 1.226562zm0 0" fill="#ffe55a"/><path d="m109.1875 304.644531c-9.15625-2.519531-18.265625-5.273437-27.308594-8.300781-.953125-.320312-1.847656-.738281-2.695312-1.226562v30.792968c0 6.238282 3.960937 11.886719 9.875 13.867188 6.675781 2.234375 13.386718 4.320312 20.128906 6.265625zm0 0" fill="#ffd500"/><path d="m482.398438 102.816406-218.652344-92.316406c-10.457032-4.417969-22.257813-4.417969-32.71875 0l-218.652344 92.316406c-6.71875 2.839844-6.71875 12.359375 0 15.199219l218.652344 92.316406c10.460937 4.417969 22.261718 4.417969 32.71875 0l218.652344-92.316406c6.71875-2.839844 6.71875-12.359375 0-15.199219zm0 0" fill="#7a6d79"/><path d="m90.050781 118.015625c-6.71875-2.839844-6.71875-12.359375 0-15.199219l196.171875-82.828125-22.476562-9.488281c-10.457032-4.417969-22.257813-4.417969-32.71875 0l-218.652344 92.320312c-6.71875 2.835938-6.71875 12.359376 0 15.195313l218.652344 92.316406c10.460937 4.417969 22.261718 4.417969 32.71875 0l22.476562-9.488281zm0 0" fill="#685e68"/><path d="m480.238281 263.929688c-11.328125 1.164062-19.792969 11.628906-19.792969 23.699218v15.101563c0 6.792969 4.53125 12.738281 10.84375 13.898437 7.199219 1.324219 14.5625 1.351563 21.769532.082032 6.492187-1.144532 11.296875-7.015626 11.296875-13.988282v-15.632812c0-13.554688-11.082031-24.5-24.117188-23.160156zm0 0" fill="#ffe55a"/><path d="m489.898438 302.730469v-15.101563c0-6.914062 2.785156-13.289062 7.289062-17.703125-4.402344-4.265625-10.429688-6.667969-16.949219-5.996093-11.328125 1.164062-19.792969 11.628906-19.792969 23.699218v15.101563c0 6.792969 4.53125 12.738281 10.84375 13.898437 7.199219 1.324219 14.5625 1.351563 21.769532.082032 1.425781-.25 2.761718-.742188 3.992187-1.410157-4.308593-2.363281-7.152343-7.199219-7.152343-12.570312zm0 0" fill="#ffd500"/><path d="m247.386719 77.597656c-7.804688 0-14.191407 6.605469-14.191407 14.679688v15.808594c0 .546874.335938 1.039062.832032 1.210937 8.667968 3.003906 18.050781 3.003906 26.71875 0 .5-.171875.832031-.664063.832031-1.210937v-15.808594c0-8.074219-6.386719-14.679688-14.191406-14.679688zm0 0" fill="#554e56"/><path d="m254.03125 109.296875c-.5-.171875-.832031-.664063-.832031-1.207031v-15.808594c0-4.050781 1.605469-7.726562 4.1875-10.390625-2.570313-2.648437-6.105469-4.292969-10-4.292969-7.804688 0-14.191407 6.605469-14.191407 14.683594v15.808594c0 .542968.335938 1.035156.832032 1.207031 7.5625 2.621094 15.664062 2.957031 23.359375 1.003906-1.125-.285156-2.246094-.617187-3.355469-1.003906zm0 0" fill="#433f43"/><path d="m490.042969 260.652344v-138.402344c8.320312-7.707031 6.015625-21.578125-4.582031-26.050781l-218.652344-92.320313c-12.25-5.171875-26.300782-5.171875-38.554688 0l-218.648437 92.320313c-12.820313 5.410156-12.792969 23.617187 0 29.015625l62.222656 26.273437v174.714844c0 9.546875 6.027344 17.976563 14.996094 20.976563 102.3125 34.285156 215.125 35.621093 321.417969 0 8.96875-3 14.996093-11.429688 14.996093-20.976563 0-9.433594 0-77.6875 0-87.234375 0-4.140625-3.359375-7.5-7.503906-7.5-4.140625 0-7.5 3.359375-7.5 7.5v51.339844c-46.328125 15.269531-94.574219 23.859375-143.453125 25.5-4.140625.140625-7.382812 3.609375-7.242188 7.75.140626 4.136718 3.574219 7.382812 7.746094 7.242187 48.65625-1.632812 96.707032-9.941406 142.953125-24.703125v20.105469c0 3.039063-1.957031 5.816406-4.757812 6.753906-100.46875 33.664063-211.226563 33.726563-311.894531-.003906-2.800782-.933594-4.753907-3.710937-4.753907-6.75v-20.105469c46.246094 14.761719 94.296875 23.070313 142.949219 24.703125 4.132812.171875 7.609375-3.101562 7.746094-7.242187.140625-4.140625-3.101563-7.609375-7.242188-7.75-48.875-1.640625-97.121094-10.230469-143.453125-25.5v-132.488282l141.425781 59.714844c11.878907 5.015625 25.996094 5.300782 38.554688 0l141.421875-59.714844v46.148438c0 4.140625 3.359375 7.5 7.5 7.5 4.144531 0 7.503906-3.359375 7.503906-7.5v-52.480469l51.804688-21.875v131.035157c-12.621094 3.402343-21.953125 15.3125-21.953125 28.972656v14.246094c0 10.164062 7.175781 18.789062 17.0625 20.503906 8.058594 1.394531 16.242187 1.417968 24.277344.085937 10.183593-1.691406 17.570312-10.355469 17.570312-20.597656v-14.746094c0-13.0625-8.773438-24.964843-21.957031-28.460937zm-475.058594-149.945313c0-.496093.273437-.613281.453125-.6875l218.652344-92.320312c8.542968-3.605469 18.34375-3.605469 26.886718 0l218.652344 92.320312c.175782.074219.4375.191407.449219.652344l-210.851563-10.453125v-8.140625c0-11.960937-9.730468-21.691406-21.695312-21.691406-11.960938 0-21.6875 9.730469-21.6875 21.691406v15.28125c0 3.761719 2.390625 7.089844 5.949219 8.28125 10.171875 3.40625 21.347656 3.394531 31.480469 0 .496093-.164063.960937-.382813 1.410156-.625l184.6875 9.152344-188.394532 79.546875c-8.796874 3.714844-18.625 3.488281-26.882812 0l-145.671875-61.503906-72.984375-30.816407c-.179688-.078125-.453125-.191406-.453125-.6875zm239.238281-18.628906v10.46875c-4.40625.863281-8.972656.863281-13.378906 0v-10.46875c0-3.6875 3-6.6875 6.6875-6.6875 3.691406 0 6.691406 3 6.691406 6.6875zm242.777344 211.78125c0 2.875-2.113281 5.3125-5.027344 5.796875-6.394531 1.0625-12.871094 1.039062-19.257812-.066406-2.636719-.457032-4.625-2.917969-4.625-5.722656v-14.246094c0-7.640625 5.71875-14.183594 13.019531-14.890625 8.738281-.835938 15.890625 6.125 15.890625 14.382812zm0 0"/></svg>